<?xml version="1.0" encoding="UTF-8" standalone="no"?>
<!-- Created with Inkscape (http://www.inkscape.org/) -->

<svg
   xmlns:dc="http://purl.org/dc/elements/1.1/"
   xmlns:cc="http://creativecommons.org/ns#"
   xmlns:rdf="http://www.w3.org/1999/02/22-rdf-syntax-ns#"
   xmlns:svg="http://www.w3.org/2000/svg"
   xmlns="http://www.w3.org/2000/svg"
   xmlns:sodipodi="http://sodipodi.sourceforge.net/DTD/sodipodi-0.dtd"
   xmlns:inkscape="http://www.inkscape.org/namespaces/inkscape"
   id="svg2"
   version="1.1"
   inkscape:version="0.48.5 r10040"
   width="1012.803"
   height="340.22852"
   xml:space="preserve"
   sodipodi:docname="logo_getari_middle.svg"
   inkscape:export-filename="logo_getari@2x.png"
   inkscape:export-xdpi="143.96001"
   inkscape:export-ydpi="143.96001"><metadata
     id="metadata8"><rdf:RDF><cc:Work
         rdf:about=""><dc:format>image/svg+xml</dc:format><dc:type
           rdf:resource="http://purl.org/dc/dcmitype/StillImage" /><dc:title></dc:title><dc:creator><cc:Agent><dc:title>David Delannoy</dc:title></cc:Agent></dc:creator></cc:Work></rdf:RDF></metadata><defs
     id="defs6"><clipPath
       clipPathUnits="userSpaceOnUse"
       id="clipPath18"><path
         d="m 0,616.5 1984.252,0 0,-616.5 L 0,0 0,616.5 z"
         id="path20"
         inkscape:connector-curvature="0" /></clipPath><clipPath
       clipPathUnits="userSpaceOnUse"
       id="clipPath28"><path
         d="m 0,616.5 1984.252,0 0,-616.5 L 0,0 0,616.5 z"
         id="path30"
         inkscape:connector-curvature="0" /></clipPath><clipPath
       clipPathUnits="userSpaceOnUse"
       id="clipPath44"><path
         d="m 0,616.5 1984.252,0 0,-616.5 L 0,0 0,616.5 z"
         id="path46"
         inkscape:connector-curvature="0" /></clipPath><clipPath
       clipPathUnits="userSpaceOnUse"
       id="clipPath60"><path
         d="m 1308.454,363.911 c -2.701,-3.506 -4.435,-8.181 -6.113,-12.731 l 0,0 c -0.892,-2.418 -2.24,-6.072 -3.001,-7.076 l 0,0 c -18.452,-24.102 -67.72,-67.935 -96.783,-82.83 l 0,0 c -5.879,-3.015 -18.113,-9.284 -29.887,-13.268 l 0,0 c -10.822,-3.663 -16.45,-3.773 -19.161,-3.332 l 0,0 c 0.291,1.589 0.765,3.544 1.1,4.926 l 0,0 c 1.781,7.357 4.221,17.434 -3.579,22.903 l 0,0 c -3.372,2.363 -7.455,3.462 -12.206,3.462 l 0,0 c -20.395,0.002 -53.116,-20.232 -94.816,-47.584 l 0,0 c -12.896,-8.459 -25.078,-16.449 -30.481,-18.831 l 0,0 C 986.129,197.471 924.379,181.732 895.225,184.746 l 0,0 c -29.057,3.002 -91.846,26.228 -111.426,48.088 l 0,0 c -5.02,5.606 -7.71,20.702 -10.083,34.02 l 0,0 c -2.844,15.955 -5.528,31.025 -12.698,40.278 l 0,0 c -13.785,17.795 -55.313,41.401 -84.899,56.779 l 0,0 -38.127,0 -0.471,-1.001 c 25.119,-11.805 93.705,-46.826 109.213,-66.843 l 0,0 c 4.445,-5.739 6.967,-19.893 9.192,-32.382 l 0,0 c 3.067,-17.215 5.965,-33.474 14.414,-42.907 l 0,0 c 23.644,-26.397 89.9,-50.583 123.029,-54.006 l 0,0 c 33.59,-3.472 97.919,13.226 127.448,26.244 l 0,0 c 6.772,2.985 18.391,10.607 33.103,20.256 l 0,0 c 16.34,10.719 36.677,24.058 54.191,33.324 l 0,0 c 17.474,9.247 26.043,11.134 29.871,11.339 l 0,0 c -0.284,-1.396 -0.657,-2.936 -0.935,-4.082 l 0,0 c -1.832,-7.559 -4.11,-16.969 3.048,-22.619 l 0,0 c 15.077,-11.905 44.204,0.377 70.705,13.959 l 0,0 c 31.531,16.162 82.93,61.855 102.888,87.929 l 0,0 c 2.416,3.154 3.966,7.358 5.607,11.806 l 0,0 c 0.946,2.567 2.53,6.864 3.473,7.976 l 0,0 c 2.054,2.058 12.772,7.088 23.415,11.007 l 0,0 -37.729,0 z"
         id="path62"
         inkscape:connector-curvature="0" /></clipPath><clipPath
       clipPathUnits="userSpaceOnUse"
       id="clipPath68"><path
         d="m -32768,32767 65535,0 0,-65534 -65535,0 0,65534 z"
         id="path70"
         inkscape:connector-curvature="0" /></clipPath><linearGradient
       x1="0"
       y1="0"
       x2="1"
       y2="0"
       gradientUnits="userSpaceOnUse"
       gradientTransform="matrix(-1.53e-5,197.60449,197.60449,1.53e-5,991.85254,166.30664)"
       spreadMethod="pad"
       id="linearGradient72"><stop
         style="stop-opacity:0;stop-color:#ffffff"
         offset="0"
         id="stop74" /><stop
         style="stop-opacity:1;stop-color:#ffffff"
         offset="1"
         id="stop76" /></linearGradient><mask
       maskUnits="userSpaceOnUse"
       x="0"
       y="0"
       width="1"
       height="1"
       id="mask78"><g
         id="g80"><g
           clip-path="url(#clipPath68)"
           id="g82"><g
             id="g84"><g
               id="g86"><path
                 d="m -32768,32767 65535,0 0,-65534 -65535,0 0,65534 z"
                 style="fill:url(#linearGradient72);stroke:none"
                 id="path88"
                 inkscape:connector-curvature="0" /></g></g></g></g></mask><linearGradient
       x1="0"
       y1="0"
       x2="1"
       y2="0"
       gradientUnits="userSpaceOnUse"
       gradientTransform="matrix(-1.53e-5,197.60449,197.60449,1.53e-5,991.85254,166.30664)"
       spreadMethod="pad"
       id="linearGradient94"><stop
         style="stop-opacity:1;stop-color:#231f20"
         offset="0"
         id="stop96" /><stop
         style="stop-opacity:1;stop-color:#a7a5a6"
         offset="1"
         id="stop98" /></linearGradient><clipPath
       clipPathUnits="userSpaceOnUse"
       id="clipPath106"><path
         d="m 1298.465,363.911 c -1.069,-2.322 -2.001,-5.078 -2.914,-7.784 l 0,0 c -1.244,-3.684 -2.53,-7.494 -3.999,-9.532 l 0,0 c -16.833,-23.329 -63.846,-64.566 -89.825,-78.791 l 0,0 c -7.882,-4.316 -32.203,-11.795 -38.518,-13.703 l 0,0 c 0.918,4.532 2.23,17.729 -10.631,27.251 l 0,0 c -2.76,2.044 -6.441,2.961 -10.822,2.961 l 0,0 c -28.363,0.005 -86.262,-38.393 -116.168,-58.224 l 0,0 c -7.523,-4.989 -12.958,-8.592 -14.909,-9.538 l 0,0 c -26.704,-12.94 -85.96,-26.768 -114.483,-23.856 l 0,0 c -28.076,2.865 -86.159,23.815 -105.804,45.782 l 0,0 c -6.447,7.208 -9.12,22.568 -11.705,37.422 l 0,0 c -2.559,14.706 -4.977,28.599 -10.812,36.154 l 0,0 c -11.304,14.642 -50.214,37.007 -78.083,51.858 l 0,0 -3.942,0 c 27.897,-14.782 69.211,-38.22 80.595,-52.962 l 0,0 c 5.561,-7.202 8.053,-21.517 10.462,-35.361 l 0,0 c 2.629,-15.105 5.347,-30.724 12.138,-38.317 l 0,0 c 19.912,-22.262 78.618,-43.48 106.968,-46.374 l 0,0 c 28.799,-2.938 88.547,10.99 115.455,24.028 l 0,0 c 2.059,0.998 7.254,4.444 15.119,9.659 l 0,0 c 31.513,20.896 105.313,69.835 124.916,55.315 l 0,0 c 14.61,-10.817 9.806,-26.187 9.594,-26.835 l 0,0 -0.532,-1.636 1.647,0.487 c 1.27,0.376 31.172,9.26 40.383,14.305 l 0,0 c 26.665,14.599 73.142,55.371 90.422,79.318 l 0,0 c 1.629,2.258 2.9,6.024 4.247,10.011 l 0,0 c 1.004,2.978 2.033,6.016 3.203,8.362 l 0,0 -2.002,0 z"
         id="path108"
         inkscape:connector-curvature="0" /></clipPath><linearGradient
       x1="0"
       y1="0"
       x2="1"
       y2="0"
       gradientUnits="userSpaceOnUse"
       gradientTransform="matrix(0,173.41016,173.41016,0,993.15869,190.50098)"
       spreadMethod="pad"
       id="linearGradient118"><stop
         style="stop-opacity:0;stop-color:#ffffff"
         offset="0"
         id="stop120" /><stop
         style="stop-opacity:1;stop-color:#ffffff"
         offset="1"
         id="stop122" /></linearGradient><mask
       maskUnits="userSpaceOnUse"
       x="0"
       y="0"
       width="1"
       height="1"
       id="mask124"><g
         id="g126"><g
           id="g128"><g
             id="g130"><g
               id="g132"><path
                 d="m -32768,32767 65535,0 0,-65534 -65535,0 0,65534 z"
                 style="fill:url(#linearGradient118);stroke:none"
                 id="path134"
                 inkscape:connector-curvature="0" /></g></g></g></g></mask><linearGradient
       x1="0"
       y1="0"
       x2="1"
       y2="0"
       gradientUnits="userSpaceOnUse"
       gradientTransform="matrix(0,173.41016,173.41016,0,993.15869,190.50098)"
       spreadMethod="pad"
       id="linearGradient140"><stop
         style="stop-opacity:1;stop-color:#231f20"
         offset="0"
         id="stop142" /><stop
         style="stop-opacity:1;stop-color:#231f20"
         offset="1"
         id="stop144" /></linearGradient><clipPath
       clipPathUnits="userSpaceOnUse"
       id="clipPath152"><path
         d="m 785.245,369.074 c -9.948,-12.189 -14.921,-27.859 -14.921,-47.006 l 0,0 c 0,-19.745 4.356,-37.714 13.07,-53.908 l 0,0 c 8.712,-16.191 19.708,-28.159 32.984,-35.901 l 0,0 c 13.274,-7.741 28.028,-11.611 44.259,-11.611 l 0,0 c 11.667,0 22.137,2.115 31.412,6.339 l 0,0 c 9.274,4.227 16.38,9.872 21.316,16.941 l 0,0 c 4.937,7.067 8.488,16.287 10.659,27.654 l 0,0 -21.541,2.356 c -2.319,-11.292 -7.124,-19.95 -14.416,-25.972 l 0,0 c -7.293,-6.019 -16.66,-9.031 -28.103,-9.031 l 0,0 c -11.893,0 -22.999,3.237 -33.321,9.704 l 0,0 c -10.321,6.47 -18.567,16.231 -24.738,29.282 l 0,0 c -6.17,13.053 -9.255,27.879 -9.255,44.482 l 0,0 c 0,16.532 4.075,29.021 12.228,37.472 l 0,0 c 8.151,8.453 19.409,12.677 33.769,12.677 l 0,0 c 14.285,0 29.655,-4.712 46.111,-14.136 l 0,0 7.404,-35.339 -50.037,0 3.926,-18.624 72.026,0 -14.023,66.978 c -9.051,5.684 -19.372,10.321 -30.965,13.911 l 0,0 c -11.594,3.589 -22.998,5.385 -34.217,5.385 l 0,0 c -23.935,0 -41.81,-7.216 -53.627,-21.653"
         id="path154"
         inkscape:connector-curvature="0" /></clipPath><linearGradient
       x1="0"
       y1="0"
       x2="1"
       y2="0"
       gradientUnits="userSpaceOnUse"
       gradientTransform="matrix(0,170.07812,170.07812,0,847.17383,220.64844)"
       spreadMethod="pad"
       id="linearGradient164"><stop
         style="stop-opacity:0;stop-color:#ffffff"
         offset="0"
         id="stop166" /><stop
         style="stop-opacity:1;stop-color:#ffffff"
         offset="1"
         id="stop168" /></linearGradient><mask
       maskUnits="userSpaceOnUse"
       x="0"
       y="0"
       width="1"
       height="1"
       id="mask170"><g
         id="g172"><g
           id="g174"><g
             id="g176"><g
               id="g178"><path
                 d="m -32768,32767 65535,0 0,-65534 -65535,0 0,65534 z"
                 style="fill:url(#linearGradient164);stroke:none"
                 id="path180"
                 inkscape:connector-curvature="0" /></g></g></g></g></mask><linearGradient
       x1="0"
       y1="0"
       x2="1"
       y2="0"
       gradientUnits="userSpaceOnUse"
       gradientTransform="matrix(0,170.07812,170.07812,0,847.17383,220.64844)"
       spreadMethod="pad"
       id="linearGradient186"><stop
         style="stop-opacity:1;stop-color:#231f20"
         offset="0"
         id="stop188" /><stop
         style="stop-opacity:1;stop-color:#a7a5a6"
         offset="1"
         id="stop190" /></linearGradient><clipPath
       clipPathUnits="userSpaceOnUse"
       id="clipPath198"><path
         d="m 932.75,390.727 16.621,-79.37 57.281,0 -1.895,9.041 -46.668,0 -5.199,24.689 45.478,0 -1.894,9.04 -45.479,0 -5.739,27.613 49.972,0 -1.894,8.987 -60.584,0 z"
         id="path200"
         inkscape:connector-curvature="0" /></clipPath><linearGradient
       x1="0"
       y1="0"
       x2="1"
       y2="0"
       gradientUnits="userSpaceOnUse"
       gradientTransform="matrix(0,79.370117,79.370117,0,969.70117,311.35645)"
       spreadMethod="pad"
       id="linearGradient210"><stop
         style="stop-opacity:0;stop-color:#ffffff"
         offset="0"
         id="stop212" /><stop
         style="stop-opacity:1;stop-color:#ffffff"
         offset="1"
         id="stop214" /></linearGradient><mask
       maskUnits="userSpaceOnUse"
       x="0"
       y="0"
       width="1"
       height="1"
       id="mask216"><g
         id="g218"><g
           id="g220"><g
             id="g222"><g
               id="g224"><path
                 d="m -32768,32767 65535,0 0,-65534 -65535,0 0,65534 z"
                 style="fill:url(#linearGradient210);stroke:none"
                 id="path226"
                 inkscape:connector-curvature="0" /></g></g></g></g></mask><linearGradient
       x1="0"
       y1="0"
       x2="1"
       y2="0"
       gradientUnits="userSpaceOnUse"
       gradientTransform="matrix(0,79.370117,79.370117,0,969.70117,311.35645)"
       spreadMethod="pad"
       id="linearGradient232"><stop
         style="stop-opacity:1;stop-color:#231f20"
         offset="0"
         id="stop234" /><stop
         style="stop-opacity:1;stop-color:#a7a5a6"
         offset="1"
         id="stop236" /></linearGradient><clipPath
       clipPathUnits="userSpaceOnUse"
       id="clipPath244"><path
         d="m 1026.902,390.727 14.672,-70.329 -26.044,0 1.897,-9.041 62.477,0 -1.895,9.041 -25.824,0 -14.674,70.329 -10.609,0 z"
         id="path246"
         inkscape:connector-curvature="0" /></clipPath><linearGradient
       x1="0"
       y1="0"
       x2="1"
       y2="0"
       gradientUnits="userSpaceOnUse"
       gradientTransform="matrix(0,79.370117,79.370117,0,1047.7173,311.35645)"
       spreadMethod="pad"
       id="linearGradient256"><stop
         style="stop-opacity:0;stop-color:#ffffff"
         offset="0"
         id="stop258" /><stop
         style="stop-opacity:1;stop-color:#ffffff"
         offset="1"
         id="stop260" /></linearGradient><mask
       maskUnits="userSpaceOnUse"
       x="0"
       y="0"
       width="1"
       height="1"
       id="mask262"><g
         id="g264"><g
           id="g266"><g
             id="g268"><g
               id="g270"><path
                 d="m -32768,32767 65535,0 0,-65534 -65535,0 0,65534 z"
                 style="fill:url(#linearGradient256);stroke:none"
                 id="path272"
                 inkscape:connector-curvature="0" /></g></g></g></g></mask><linearGradient
       x1="0"
       y1="0"
       x2="1"
       y2="0"
       gradientUnits="userSpaceOnUse"
       gradientTransform="matrix(0,79.370117,79.370117,0,1047.7173,311.35645)"
       spreadMethod="pad"
       id="linearGradient278"><stop
         style="stop-opacity:1;stop-color:#231f20"
         offset="0"
         id="stop280" /><stop
         style="stop-opacity:1;stop-color:#a7a5a6"
         offset="1"
         id="stop282" /></linearGradient><clipPath
       clipPathUnits="userSpaceOnUse"
       id="clipPath290"><path
         d="m 1119.317,390.727 -3.843,-22.848 -32.105,0 -12.723,22.848 -11.639,0 44.991,-79.37 12.505,0 13.102,79.37 -10.288,0 z m -18.352,-54.52 -13.048,23.497 26.259,0 -3.086,-19.922 c -1.192,-7.906 -1.933,-14.492 -2.222,-19.763 l 0,0 c -1.804,4.548 -4.438,9.946 -7.903,16.188"
         id="path292"
         inkscape:connector-curvature="0" /></clipPath><linearGradient
       x1="0"
       y1="0"
       x2="1"
       y2="0"
       gradientUnits="userSpaceOnUse"
       gradientTransform="matrix(0,79.370117,79.370117,0,1094.3062,311.35645)"
       spreadMethod="pad"
       id="linearGradient302"><stop
         style="stop-opacity:0;stop-color:#ffffff"
         offset="0"
         id="stop304" /><stop
         style="stop-opacity:1;stop-color:#ffffff"
         offset="1"
         id="stop306" /></linearGradient><mask
       maskUnits="userSpaceOnUse"
       x="0"
       y="0"
       width="1"
       height="1"
       id="mask308"><g
         id="g310"><g
           id="g312"><g
             id="g314"><g
               id="g316"><path
                 d="m -32768,32767 65535,0 0,-65534 -65535,0 0,65534 z"
                 style="fill:url(#linearGradient302);stroke:none"
                 id="path318"
                 inkscape:connector-curvature="0" /></g></g></g></g></mask><linearGradient
       x1="0"
       y1="0"
       x2="1"
       y2="0"
       gradientUnits="userSpaceOnUse"
       gradientTransform="matrix(0,79.370117,79.370117,0,1094.3062,311.35645)"
       spreadMethod="pad"
       id="linearGradient324"><stop
         style="stop-opacity:1;stop-color:#231f20"
         offset="0"
         id="stop326" /><stop
         style="stop-opacity:1;stop-color:#a7a5a6"
         offset="1"
         id="stop328" /></linearGradient><clipPath
       clipPathUnits="userSpaceOnUse"
       id="clipPath336"><path
         d="m 1198.094,390.727 -5.687,-14.781 c -2.056,-5.34 -4.402,-9.962 -7.037,-13.859 l 0,0 c -1.806,-2.707 -3.646,-4.485 -5.523,-5.333 l 0,0 c -1.877,-0.848 -4.926,-1.273 -9.149,-1.273 l 0,0 -12.343,0 -7.363,35.246 -10.612,0 16.621,-79.37 33.298,0 c 6.568,0 11.548,0.551 14.941,1.652 l 0,0 c 3.392,1.1 6.055,3.165 7.986,6.199 l 0,0 c 1.93,3.032 2.896,6.857 2.896,11.477 l 0,0 c 0,6.461 -2.111,11.821 -6.336,16.08 l 0,0 c -4.22,4.259 -11.045,7.02 -20.464,8.284 l 0,0 c 2.886,2.129 5.07,4.223 6.55,6.28 l 0,0 c 3.32,4.655 5.993,9.476 8.014,14.454 l 0,0 6.065,14.944 -11.857,0 z m -37.953,-43.854 14.671,0 c 6.785,0 11.207,-0.089 13.265,-0.27 l 0,0 c 4.006,-0.396 7.291,-1.298 9.855,-2.708 l 0,0 c 2.56,-1.405 4.546,-3.304 5.954,-5.684 l 0,0 c 1.408,-2.382 2.113,-4.945 2.113,-7.689 l 0,0 c 0,-2.307 -0.525,-4.321 -1.572,-6.037 l 0,0 c -1.047,-1.712 -2.418,-2.876 -4.113,-3.491 l 0,0 c -1.698,-0.613 -4.584,-0.921 -8.665,-0.921 l 0,0 -25.876,0 -5.632,26.8 z"
         id="path338"
         inkscape:connector-curvature="0" /></clipPath><linearGradient
       x1="0"
       y1="0"
       x2="1"
       y2="0"
       gradientUnits="userSpaceOnUse"
       gradientTransform="matrix(0,79.370117,79.370117,0,1178.2515,311.35645)"
       spreadMethod="pad"
       id="linearGradient348"><stop
         style="stop-opacity:0;stop-color:#ffffff"
         offset="0"
         id="stop350" /><stop
         style="stop-opacity:1;stop-color:#ffffff"
         offset="1"
         id="stop352" /></linearGradient><mask
       maskUnits="userSpaceOnUse"
       x="0"
       y="0"
       width="1"
       height="1"
       id="mask354"><g
         id="g356"><g
           id="g358"><g
             id="g360"><g
               id="g362"><path
                 d="m -32768,32767 65535,0 0,-65534 -65535,0 0,65534 z"
                 style="fill:url(#linearGradient348);stroke:none"
                 id="path364"
                 inkscape:connector-curvature="0" /></g></g></g></g></mask><linearGradient
       x1="0"
       y1="0"
       x2="1"
       y2="0"
       gradientUnits="userSpaceOnUse"
       gradientTransform="matrix(0,79.370117,79.370117,0,1178.2515,311.35645)"
       spreadMethod="pad"
       id="linearGradient370"><stop
         style="stop-opacity:1;stop-color:#231f20"
         offset="0"
         id="stop372" /><stop
         style="stop-opacity:1;stop-color:#a7a5a6"
         offset="1"
         id="stop374" /></linearGradient><clipPath
       clipPathUnits="userSpaceOnUse"
       id="clipPath382"><path
         d="m 1221.592,390.727 16.621,-79.37 10.556,0 -16.568,79.37 -10.609,0 z"
         id="path384"
         inkscape:connector-curvature="0" /></clipPath><linearGradient
       x1="0"
       y1="0"
       x2="1"
       y2="0"
       gradientUnits="userSpaceOnUse"
       gradientTransform="matrix(0,79.370117,79.370117,0,1235.1802,311.35645)"
       spreadMethod="pad"
       id="linearGradient394"><stop
         style="stop-opacity:0;stop-color:#ffffff"
         offset="0"
         id="stop396" /><stop
         style="stop-opacity:1;stop-color:#ffffff"
         offset="1"
         id="stop398" /></linearGradient><mask
       maskUnits="userSpaceOnUse"
       x="0"
       y="0"
       width="1"
       height="1"
       id="mask400"><g
         id="g402"><g
           id="g404"><g
             id="g406"><g
               id="g408"><path
                 d="m -32768,32767 65535,0 0,-65534 -65535,0 0,65534 z"
                 style="fill:url(#linearGradient394);stroke:none"
                 id="path410"
                 inkscape:connector-curvature="0" /></g></g></g></g></mask><linearGradient
       x1="0"
       y1="0"
       x2="1"
       y2="0"
       gradientUnits="userSpaceOnUse"
       gradientTransform="matrix(0,79.370117,79.370117,0,1235.1802,311.35645)"
       spreadMethod="pad"
       id="linearGradient416"><stop
         style="stop-opacity:1;stop-color:#231f20"
         offset="0"
         id="stop418" /><stop
         style="stop-opacity:1;stop-color:#a7a5a6"
         offset="1"
         id="stop420" /></linearGradient><clipPath
       clipPathUnits="userSpaceOnUse"
       id="clipPath476"><path
         d="m 0,616.5 1984.252,0 0,-616.5 L 0,0 0,616.5 z"
         id="path478"
         inkscape:connector-curvature="0" /></clipPath><clipPath
       clipPathUnits="userSpaceOnUse"
       id="clipPath508"><path
         d="m 805.186,339.646 c -8.989,-11.013 -13.482,-25.172 -13.482,-42.471 l 0,0 c 0,-17.839 3.936,-34.073 11.809,-48.704 l 0,0 c 7.871,-14.629 17.805,-25.442 29.8,-32.436 l 0,0 c 11.994,-6.994 25.323,-10.491 39.988,-10.491 l 0,0 c 10.54,0 20,1.911 28.38,5.727 l 0,0 c 8.379,3.819 14.8,8.919 19.259,15.306 l 0,0 c 4.461,6.385 7.669,14.715 9.629,24.986 l 0,0 -19.461,2.127 c -2.095,-10.2 -6.437,-18.023 -13.024,-23.465 l 0,0 c -6.589,-5.437 -15.053,-8.16 -25.392,-8.16 l 0,0 c -10.744,0 -20.779,2.925 -30.105,8.769 l 0,0 c -9.325,5.845 -16.775,14.664 -22.35,26.455 l 0,0 c -5.574,11.793 -8.362,25.189 -8.362,40.19 l 0,0 c 0,14.936 3.682,26.219 11.048,33.855 l 0,0 c 7.365,7.637 17.536,11.454 30.511,11.454 l 0,0 c 12.905,0 26.791,-4.258 41.659,-12.772 l 0,0 6.69,-31.928 -45.207,0 3.547,-16.827 65.074,0 -12.67,60.513 c -8.177,5.136 -17.502,9.326 -27.975,12.569 l 0,0 c -10.476,3.243 -20.78,4.865 -30.916,4.865 l 0,0 c -21.625,0 -37.775,-6.52 -48.45,-19.562"
         id="path510"
         inkscape:connector-curvature="0" /></clipPath><linearGradient
       x1="0"
       y1="0"
       x2="1"
       y2="0"
       gradientUnits="userSpaceOnUse"
       gradientTransform="matrix(0,153.66406,153.66406,0,861.13672,205.54395)"
       spreadMethod="pad"
       id="linearGradient520"><stop
         style="stop-opacity:0;stop-color:#ffffff"
         offset="0"
         id="stop522" /><stop
         style="stop-opacity:1;stop-color:#ffffff"
         offset="1"
         id="stop524" /></linearGradient><mask
       maskUnits="userSpaceOnUse"
       x="0"
       y="0"
       width="1"
       height="1"
       id="mask526"><g
         id="g528"><g
           id="g530"><g
             id="g532"><g
               id="g534"><path
                 d="m -32768,32767 65535,0 0,-65534 -65535,0 0,65534 z"
                 style="fill:url(#linearGradient520);stroke:none"
                 id="path536"
                 inkscape:connector-curvature="0" /></g></g></g></g></mask><linearGradient
       x1="0"
       y1="0"
       x2="1"
       y2="0"
       gradientUnits="userSpaceOnUse"
       gradientTransform="matrix(0,153.66406,153.66406,0,861.13672,205.54395)"
       spreadMethod="pad"
       id="linearGradient542"><stop
         style="stop-opacity:1;stop-color:#231f20"
         offset="0"
         id="stop544" /><stop
         style="stop-opacity:1;stop-color:#a7a5a6"
         offset="1"
         id="stop546" /></linearGradient><clipPath
       clipPathUnits="userSpaceOnUse"
       id="clipPath554"><path
         d="m 938.454,359.208 15.017,-71.71 51.753,0 -1.711,8.169 -42.166,0 -4.696,22.307 41.089,0 -1.712,8.166 -41.089,0 -5.185,24.949 45.148,0 -1.712,8.119 -54.736,0 z"
         id="path556"
         inkscape:connector-curvature="0" /></clipPath><linearGradient
       x1="0"
       y1="0"
       x2="1"
       y2="0"
       gradientUnits="userSpaceOnUse"
       gradientTransform="matrix(0,71.709961,71.709961,0,971.83887,287.49805)"
       spreadMethod="pad"
       id="linearGradient566"><stop
         style="stop-opacity:0;stop-color:#ffffff"
         offset="0"
         id="stop568" /><stop
         style="stop-opacity:1;stop-color:#ffffff"
         offset="1"
         id="stop570" /></linearGradient><mask
       maskUnits="userSpaceOnUse"
       x="0"
       y="0"
       width="1"
       height="1"
       id="mask572"><g
         id="g574"><g
           id="g576"><g
             id="g578"><g
               id="g580"><path
                 d="m -32768,32767 65535,0 0,-65534 -65535,0 0,65534 z"
                 style="fill:url(#linearGradient566);stroke:none"
                 id="path582"
                 inkscape:connector-curvature="0" /></g></g></g></g></mask><linearGradient
       x1="0"
       y1="0"
       x2="1"
       y2="0"
       gradientUnits="userSpaceOnUse"
       gradientTransform="matrix(0,71.709961,71.709961,0,971.83887,287.49805)"
       spreadMethod="pad"
       id="linearGradient588"><stop
         style="stop-opacity:1;stop-color:#231f20"
         offset="0"
         id="stop590" /><stop
         style="stop-opacity:1;stop-color:#a7a5a6"
         offset="1"
         id="stop592" /></linearGradient><clipPath
       clipPathUnits="userSpaceOnUse"
       id="clipPath600"><path
         d="m 1023.519,359.208 13.256,-63.541 -23.53,0 1.714,-8.169 56.447,0 -1.712,8.169 -23.332,0 -13.257,63.541 -9.586,0 z"
         id="path602"
         inkscape:connector-curvature="0" /></clipPath><linearGradient
       x1="0"
       y1="0"
       x2="1"
       y2="0"
       gradientUnits="userSpaceOnUse"
       gradientTransform="matrix(0,71.709961,71.709961,0,1042.3257,287.49805)"
       spreadMethod="pad"
       id="linearGradient612"><stop
         style="stop-opacity:0;stop-color:#ffffff"
         offset="0"
         id="stop614" /><stop
         style="stop-opacity:1;stop-color:#ffffff"
         offset="1"
         id="stop616" /></linearGradient><mask
       maskUnits="userSpaceOnUse"
       x="0"
       y="0"
       width="1"
       height="1"
       id="mask618"><g
         id="g620"><g
           id="g622"><g
             id="g624"><g
               id="g626"><path
                 d="m -32768,32767 65535,0 0,-65534 -65535,0 0,65534 z"
                 style="fill:url(#linearGradient612);stroke:none"
                 id="path628"
                 inkscape:connector-curvature="0" /></g></g></g></g></mask><linearGradient
       x1="0"
       y1="0"
       x2="1"
       y2="0"
       gradientUnits="userSpaceOnUse"
       gradientTransform="matrix(0,71.709961,71.709961,0,1042.3257,287.49805)"
       spreadMethod="pad"
       id="linearGradient634"><stop
         style="stop-opacity:1;stop-color:#231f20"
         offset="0"
         id="stop636" /><stop
         style="stop-opacity:1;stop-color:#a7a5a6"
         offset="1"
         id="stop638" /></linearGradient><clipPath
       clipPathUnits="userSpaceOnUse"
       id="clipPath646"><path
         d="m 1107.016,359.208 -3.473,-20.642 -29.006,0 -11.496,20.642 -10.515,0 40.648,-71.71 11.299,0 11.837,71.71 -9.294,0 z m -16.582,-49.258 -11.788,21.229 23.724,0 -2.789,-17.998 c -1.076,-7.144 -1.745,-13.094 -2.005,-17.856 l 0,0 c -1.632,4.109 -4.012,8.986 -7.142,14.625"
         id="path648"
         inkscape:connector-curvature="0" /></clipPath><linearGradient
       x1="0"
       y1="0"
       x2="1"
       y2="0"
       gradientUnits="userSpaceOnUse"
       gradientTransform="matrix(0,71.709961,71.709961,0,1084.4175,287.49805)"
       spreadMethod="pad"
       id="linearGradient658"><stop
         style="stop-opacity:0;stop-color:#ffffff"
         offset="0"
         id="stop660" /><stop
         style="stop-opacity:1;stop-color:#ffffff"
         offset="1"
         id="stop662" /></linearGradient><mask
       maskUnits="userSpaceOnUse"
       x="0"
       y="0"
       width="1"
       height="1"
       id="mask664"><g
         id="g666"><g
           id="g668"><g
             id="g670"><g
               id="g672"><path
                 d="m -32768,32767 65535,0 0,-65534 -65535,0 0,65534 z"
                 style="fill:url(#linearGradient658);stroke:none"
                 id="path674"
                 inkscape:connector-curvature="0" /></g></g></g></g></mask><linearGradient
       x1="0"
       y1="0"
       x2="1"
       y2="0"
       gradientUnits="userSpaceOnUse"
       gradientTransform="matrix(0,71.709961,71.709961,0,1084.4175,287.49805)"
       spreadMethod="pad"
       id="linearGradient680"><stop
         style="stop-opacity:1;stop-color:#231f20"
         offset="0"
         id="stop682" /><stop
         style="stop-opacity:1;stop-color:#a7a5a6"
         offset="1"
         id="stop684" /></linearGradient><clipPath
       clipPathUnits="userSpaceOnUse"
       id="clipPath692"><path
         d="m 1178.189,359.208 -5.137,-13.353 c -1.859,-4.826 -3.977,-9.001 -6.359,-12.523 l 0,0 c -1.631,-2.445 -3.293,-4.051 -4.989,-4.819 l 0,0 c -1.697,-0.765 -4.451,-1.149 -8.266,-1.149 l 0,0 -11.153,0 -6.652,31.844 -9.587,0 15.017,-71.71 30.083,0 c 5.934,0 10.434,0.498 13.5,1.493 l 0,0 c 3.064,0.994 5.47,2.861 7.215,5.601 l 0,0 c 1.744,2.738 2.617,6.195 2.617,10.37 l 0,0 c 0,5.837 -1.907,10.68 -5.725,14.527 l 0,0 c -3.813,3.849 -9.978,6.343 -18.489,7.485 l 0,0 c 2.608,1.925 4.582,3.815 5.918,5.673 l 0,0 c 3,4.207 5.414,8.562 7.241,13.06 l 0,0 5.479,13.501 -10.713,0 z m -34.29,-39.621 13.256,0 c 6.129,0 10.125,-0.081 11.986,-0.245 l 0,0 c 3.618,-0.357 6.586,-1.172 8.901,-2.446 l 0,0 c 2.314,-1.27 4.108,-2.984 5.381,-5.135 l 0,0 c 1.272,-2.153 1.908,-4.467 1.908,-6.946 l 0,0 c 0,-2.086 -0.474,-3.905 -1.42,-5.455 l 0,0 c -0.946,-1.546 -2.184,-2.599 -3.716,-3.154 l 0,0 c -1.533,-0.554 -4.142,-0.832 -7.827,-0.832 l 0,0 -23.38,0 -5.089,24.213 z"
         id="path694"
         inkscape:connector-curvature="0" /></clipPath><linearGradient
       x1="0"
       y1="0"
       x2="1"
       y2="0"
       gradientUnits="userSpaceOnUse"
       gradientTransform="matrix(0,71.709961,71.709961,0,1160.2612,287.49805)"
       spreadMethod="pad"
       id="linearGradient704"><stop
         style="stop-opacity:0;stop-color:#ffffff"
         offset="0"
         id="stop706" /><stop
         style="stop-opacity:1;stop-color:#ffffff"
         offset="1"
         id="stop708" /></linearGradient><mask
       maskUnits="userSpaceOnUse"
       x="0"
       y="0"
       width="1"
       height="1"
       id="mask710"><g
         id="g712"><g
           id="g714"><g
             id="g716"><g
               id="g718"><path
                 d="m -32768,32767 65535,0 0,-65534 -65535,0 0,65534 z"
                 style="fill:url(#linearGradient704);stroke:none"
                 id="path720"
                 inkscape:connector-curvature="0" /></g></g></g></g></mask><linearGradient
       x1="0"
       y1="0"
       x2="1"
       y2="0"
       gradientUnits="userSpaceOnUse"
       gradientTransform="matrix(0,71.709961,71.709961,0,1160.2612,287.49805)"
       spreadMethod="pad"
       id="linearGradient726"><stop
         style="stop-opacity:1;stop-color:#231f20"
         offset="0"
         id="stop728" /><stop
         style="stop-opacity:1;stop-color:#a7a5a6"
         offset="1"
         id="stop730" /></linearGradient><clipPath
       clipPathUnits="userSpaceOnUse"
       id="clipPath738"><path
         d="m 1199.419,359.208 15.017,-71.71 9.538,0 -14.97,71.71 -9.585,0 z"
         id="path740"
         inkscape:connector-curvature="0" /></clipPath><linearGradient
       x1="0"
       y1="0"
       x2="1"
       y2="0"
       gradientUnits="userSpaceOnUse"
       gradientTransform="matrix(0,71.709961,71.709961,0,1211.6968,287.49805)"
       spreadMethod="pad"
       id="linearGradient750"><stop
         style="stop-opacity:0;stop-color:#ffffff"
         offset="0"
         id="stop752" /><stop
         style="stop-opacity:1;stop-color:#ffffff"
         offset="1"
         id="stop754" /></linearGradient><mask
       maskUnits="userSpaceOnUse"
       x="0"
       y="0"
       width="1"
       height="1"
       id="mask756"><g
         id="g758"><g
           id="g760"><g
             id="g762"><g
               id="g764"><path
                 d="m -32768,32767 65535,0 0,-65534 -65535,0 0,65534 z"
                 style="fill:url(#linearGradient750);stroke:none"
                 id="path766"
                 inkscape:connector-curvature="0" /></g></g></g></g></mask><linearGradient
       x1="0"
       y1="0"
       x2="1"
       y2="0"
       gradientUnits="userSpaceOnUse"
       gradientTransform="matrix(0,71.709961,71.709961,0,1211.6968,287.49805)"
       spreadMethod="pad"
       id="linearGradient772"><stop
         style="stop-opacity:1;stop-color:#231f20"
         offset="0"
         id="stop774" /><stop
         style="stop-opacity:1;stop-color:#a7a5a6"
         offset="1"
         id="stop776" /></linearGradient><clipPath
       clipPathUnits="userSpaceOnUse"
       id="clipPath784"><path
         d="m 0,616.5 1984.252,0 0,-616.5 L 0,0 0,616.5 z"
         id="path786"
         inkscape:connector-curvature="0" /></clipPath><clipPath
       clipPathUnits="userSpaceOnUse"
       id="clipPath816"><path
         d="M 820.84,99.005 C 798.929,72.16 785.822,39.156 781.513,0 l 0,0 61.33,0 c 3.9,31.242 14.507,55.836 31.824,73.786 l 0,0 c 22.349,23.176 53.211,34.756 92.584,34.756 l 0,0 c 39.162,0 81.301,-12.92 126.417,-38.757 l 0,0 14.621,-69.785 60.365,0 -22.082,105.466 c -24.814,15.586 -53.112,28.299 -84.892,38.14 l 0,0 c -31.788,9.842 -63.055,14.764 -93.814,14.764 l 0,0 c -65.622,0 -114.631,-19.783 -147.026,-59.365"
         id="path818"
         inkscape:connector-curvature="0" /></clipPath><linearGradient
       x1="0"
       y1="0"
       x2="1"
       y2="0"
       gradientUnits="userSpaceOnUse"
       gradientTransform="matrix(-1.53e-5,466.2998,466.2998,1.53e-5,990.62695,-307.92969)"
       spreadMethod="pad"
       id="linearGradient828"><stop
         style="stop-opacity:0;stop-color:#ffffff"
         offset="0"
         id="stop830" /><stop
         style="stop-opacity:1;stop-color:#ffffff"
         offset="1"
         id="stop832" /></linearGradient><mask
       maskUnits="userSpaceOnUse"
       x="0"
       y="0"
       width="1"
       height="1"
       id="mask834"><g
         id="g836"><g
           id="g838"><g
             id="g840"><g
               id="g842"><path
                 d="m -32768,32767 65535,0 0,-65534 -65535,0 0,65534 z"
                 style="fill:url(#linearGradient828);stroke:none"
                 id="path844"
                 inkscape:connector-curvature="0" /></g></g></g></g></mask><linearGradient
       x1="0"
       y1="0"
       x2="1"
       y2="0"
       gradientUnits="userSpaceOnUse"
       gradientTransform="matrix(-1.53e-5,466.2998,466.2998,1.53e-5,990.62695,-307.92969)"
       spreadMethod="pad"
       id="linearGradient850"><stop
         style="stop-opacity:1;stop-color:#231f20"
         offset="0"
         id="stop852" /><stop
         style="stop-opacity:1;stop-color:#a7a5a6"
         offset="1"
         id="stop854" /></linearGradient><clipPath
       clipPathUnits="userSpaceOnUse"
       id="clipPath862"><path
         d="m 0,616.5 1984.252,0 0,-616.5 L 0,0 0,616.5 z"
         id="path864"
         inkscape:connector-curvature="0" /></clipPath></defs><sodipodi:namedview
     pagecolor="#ffffff"
     bordercolor="#666666"
     borderopacity="1"
     objecttolerance="10"
     gridtolerance="10"
     guidetolerance="10"
     inkscape:pageopacity="0"
     inkscape:pageshadow="2"
     inkscape:window-width="1855"
     inkscape:window-height="1176"
     id="namedview4"
     showgrid="false"
     fit-margin-top="0"
     fit-margin-left="0"
     fit-margin-right="0"
     fit-margin-bottom="0"
     inkscape:zoom="0.5"
     inkscape:cx="506.40149"
     inkscape:cy="80.692721"
     inkscape:window-x="65"
     inkscape:window-y="24"
     inkscape:window-maximized="1"
     inkscape:current-layer="g10" /><g
     id="g10"
     inkscape:groupmode="layer"
     inkscape:label="getari"
     transform="matrix(1.25,0,0,-1.25,-744.85539,767.76515)"><g
       id="g24"><g
         id="g26"
         clip-path="url(#clipPath28)"><g
           id="g32"
           transform="translate(643.5957,381.5)"><path
             d="m 0,0 c 33.669,18.11 80.927,45.91 96.615,66.866 8.158,10.899 11.214,28.646 14.449,47.434 2.702,15.685 5.763,33.464 11.476,40.065 22.281,25.744 93.735,53.096 126.802,56.631 33.178,3.55 103.449,-14.985 134.627,-29.21 6.149,-2.805 20.011,-12.215 34.688,-22.177 47.453,-32.211 84.691,-56.041 107.899,-56.039 5.407,0 10.055,1.295 13.891,4.078 8.878,6.442 6.1,18.309 4.073,26.972 -0.382,1.629 -0.92,3.929 -1.251,5.801 3.084,0.52 9.489,0.39 21.806,-3.923 13.397,-4.692 27.32,-12.077 34.01,-15.626 33.075,-17.541 89.141,-69.161 110.139,-97.547 0.865,-1.18 2.4,-5.484 3.414,-8.332 1.91,-5.36 3.884,-10.865 6.957,-14.993 l 42.936,0 c -12.113,4.614 -24.31,10.539 -26.647,12.964 -1.072,1.307 -2.875,6.368 -3.952,9.391 -1.868,5.24 -3.631,10.189 -6.38,13.905 -22.714,30.704 -81.203,84.517 -117.088,103.551 -30.156,15.994 -63.302,30.46 -80.461,16.438 -8.146,-6.655 -5.552,-17.735 -3.469,-26.638 0.316,-1.349 0.741,-3.164 1.064,-4.806 -4.355,0.241 -14.107,2.465 -33.991,13.352 -19.933,10.913 -43.075,26.623 -61.672,39.245 -16.74,11.365 -29.963,20.34 -37.67,23.856 -33.604,15.331 -106.809,34.995 -145.036,30.907 -37.7,-4.031 -113.1,-32.514 -140.007,-63.602 C 97.608,157.454 94.311,138.305 90.82,118.033 88.288,103.325 85.417,86.655 80.359,79.898 62.711,56.324 -15.339,15.08 -43.924,1.179 L -43.389,0 0,0 z"
             style="fill:#3984a4;fill-opacity:1;fill-rule:nonzero;stroke:none"
             id="path34"
             inkscape:connector-curvature="0" /></g><g
           id="g36"
           transform="translate(659.1558,381.5)"><path
             d="m 0,0 c 31.715,17.489 75.993,43.829 88.858,61.07 6.64,8.899 9.392,25.259 12.304,42.579 2.942,17.494 5.984,35.582 13.32,44.071 22.356,25.869 88.455,50.541 120.405,53.916 32.458,3.429 99.892,-12.856 130.281,-28.095 2.22,-1.114 8.405,-5.358 16.966,-11.232 34.033,-23.355 99.923,-68.576 132.2,-68.569 4.985,0.001 9.175,1.08 12.314,3.488 14.636,11.212 13.143,26.754 12.098,32.092 7.187,-2.248 34.864,-11.054 43.834,-16.138 29.566,-16.753 83.065,-65.316 102.221,-92.79 1.672,-2.4 3.136,-6.886 4.552,-11.225 1.039,-3.188 2.098,-6.435 3.316,-9.167 l 2.276,0 c -1.331,2.762 -2.502,6.342 -3.645,9.848 -1.531,4.695 -2.978,9.13 -4.832,11.789 -19.664,28.202 -72.557,76.217 -102.9,93.411 -10.482,5.94 -44.511,16.403 -45.955,16.846 l -1.876,0.573 0.607,-1.925 c 0.241,-0.764 5.707,-18.865 -10.918,-31.604 -22.309,-17.099 -106.293,40.534 -142.155,65.144 -8.95,6.141 -14.862,10.198 -17.206,11.374 -30.62,15.356 -98.613,31.756 -131.387,28.296 -32.262,-3.407 -99.069,-28.394 -121.729,-54.613 -7.728,-8.943 -10.821,-27.336 -13.813,-45.123 C 96.395,87.711 93.56,70.854 87.231,62.371 74.276,45.01 27.26,17.408 -4.485,0 L 0,0 z"
             style="fill:#3984a4;fill-opacity:1;fill-rule:nonzero;stroke:none"
             id="path38"
             inkscape:connector-curvature="0" /></g></g></g><text
       transform="matrix(1,0,0,-1,594.1265,349.5)"
       id="text424"><tspan
         style="font-size:36px;font-style:italic;font-variant:normal;font-weight:bold;font-stretch:normal;writing-mode:lr-tb;fill:#878486;fill-opacity:1;fill-rule:nonzero;stroke:none;font-family:Arial;-inkscape-font-specification:Arial-BoldItalicMT"
         x="0"
         y="0"
         id="tspan426">G</tspan></text>
<text
       transform="matrix(1,0,0,-1,622.1345,349.5)"
       id="text428"><tspan
         style="font-size:36px;font-style:italic;font-variant:normal;font-weight:normal;font-stretch:normal;writing-mode:lr-tb;fill:#878486;fill-opacity:1;fill-rule:nonzero;stroke:none;font-family:Arial;-inkscape-font-specification:Arial-ItalicMT"
         x="0 20.016001 40.032001 60.048 72.036003 80.028 98.028"
         y="0"
         sodipodi:role="line"
         id="tspan430">eneric </tspan></text>
<text
       transform="matrix(1,0,0,-1,730.1705,349.5)"
       id="text432"><tspan
         style="font-size:36px;font-style:italic;font-variant:normal;font-weight:bold;font-stretch:normal;writing-mode:lr-tb;fill:#878486;fill-opacity:1;fill-rule:nonzero;stroke:none;font-family:Arial;-inkscape-font-specification:Arial-BoldItalicMT"
         x="0"
         y="0"
         id="tspan434">E</tspan></text>
<text
       transform="matrix(1,0,0,-1,754.1825,349.5)"
       id="text436"><tspan
         style="font-size:36px;font-style:italic;font-variant:normal;font-weight:normal;font-stretch:normal;writing-mode:lr-tb;fill:#878486;fill-opacity:1;fill-rule:nonzero;stroke:none;font-family:Arial;-inkscape-font-specification:Arial-ItalicMT"
         x="0 18 38.015999 46.007999 66.024002 86.040001 96.047997 104.04 124.056 144.07201"
         y="0"
         sodipodi:role="line"
         id="tspan438">valuation </tspan></text>
<text
       transform="matrix(1,0,0,-1,908.2985,349.5)"
       id="text440"><tspan
         style="font-size:36px;font-style:italic;font-variant:normal;font-weight:bold;font-stretch:normal;writing-mode:lr-tb;fill:#878486;fill-opacity:1;fill-rule:nonzero;stroke:none;font-family:Arial;-inkscape-font-specification:Arial-BoldItalicMT"
         x="0"
         y="0"
         id="tspan442">T</tspan></text>
<text
       transform="matrix(1,0,0,-1,930.2945,349.5)"
       id="text444"><tspan
         style="font-size:36px;font-style:italic;font-variant:normal;font-weight:normal;font-stretch:normal;writing-mode:lr-tb;fill:#878486;fill-opacity:1;fill-rule:nonzero;stroke:none;font-family:Arial;-inkscape-font-specification:Arial-ItalicMT"
         x="0 20.016001 40.032001 48.023998 58.032001 78.047997 88.056"
         y="0"
         sodipodi:role="line"
         id="tspan446">ool of </tspan></text>
<text
       transform="matrix(1,0,0,-1,1028.3585,349.5)"
       id="text448"><tspan
         style="font-size:36px;font-style:italic;font-variant:normal;font-weight:bold;font-stretch:normal;writing-mode:lr-tb;fill:#878486;fill-opacity:1;fill-rule:nonzero;stroke:none;font-family:Arial;-inkscape-font-specification:Arial-BoldItalicMT"
         x="0"
         y="0"
         id="tspan450">A</tspan></text>
<text
       transform="matrix(1,0,0,-1,1054.3505,349.5)"
       id="text452"><tspan
         style="font-size:36px;font-style:italic;font-variant:normal;font-weight:normal;font-stretch:normal;writing-mode:lr-tb;fill:#878486;fill-opacity:1;fill-rule:nonzero;stroke:none;font-family:Arial;-inkscape-font-specification:Arial-ItalicMT"
         x="0"
         y="0"
         id="tspan454">g</tspan></text>
<text
       transform="matrix(1,0,0,-1,1074.3665,349.5)"
       id="text456"><tspan
         style="font-size:36px;font-style:italic;font-variant:normal;font-weight:bold;font-stretch:normal;writing-mode:lr-tb;fill:#878486;fill-opacity:1;fill-rule:nonzero;stroke:none;font-family:Arial;-inkscape-font-specification:Arial-BoldItalicMT"
         x="0"
         y="0"
         id="tspan458">R</tspan></text>
<text
       transform="matrix(1,0,0,-1,1100.3585,349.5)"
       id="text460"><tspan
         style="font-size:36px;font-style:italic;font-variant:normal;font-weight:normal;font-stretch:normal;writing-mode:lr-tb;fill:#878486;fill-opacity:1;fill-rule:nonzero;stroke:none;font-family:Arial;-inkscape-font-specification:Arial-ItalicMT"
         x="0 20.016001 38.015999 46.007999 54 83.987999 104.004 114.012 122.004 140.004"
         y="0"
         sodipodi:role="line"
         id="tspan462">oclimatic </tspan></text>
<text
       transform="matrix(1,0,0,-1,1250.3705,349.5)"
       id="text464"><tspan
         style="font-size:36px;font-style:italic;font-variant:normal;font-weight:bold;font-stretch:normal;writing-mode:lr-tb;fill:#878486;fill-opacity:1;fill-rule:nonzero;stroke:none;font-family:Arial;-inkscape-font-specification:Arial-BoldItalicMT"
         x="0"
         y="0"
         id="tspan466">I</tspan></text>
<text
       transform="matrix(1,0,0,-1,1260.3785,349.5)"
       id="text468"><tspan
         style="font-size:36px;font-style:italic;font-variant:normal;font-weight:normal;font-stretch:normal;writing-mode:lr-tb;fill:#878486;fill-opacity:1;fill-rule:nonzero;stroke:none;font-family:Arial;-inkscape-font-specification:Arial-ItalicMT"
         x="0 20.016001 40.032001 48.023998 66.024002 86.040001 96.047997 116.064 128.052"
         y="0"
         sodipodi:role="line"
         id="tspan470">ndicators</tspan></text>
<g
       id="g472"><g
         id="g474"
         clip-path="url(#clipPath476)"><g
           id="g480"
           transform="translate(842.1406,449.376)"><path
             d="m 0,0 3.926,18.624 72.026,0 -14.024,-66.978 C 52.877,-54.038 42.556,-58.675 30.964,-62.265 19.37,-65.854 7.965,-67.649 -3.253,-67.649 c -23.935,0 -41.811,7.215 -53.627,21.652 -9.949,12.189 -14.921,27.859 -14.921,47.007 0,19.745 4.356,37.713 13.07,53.907 8.712,16.191 19.707,28.159 32.983,35.9 13.275,7.742 28.028,11.612 44.259,11.612 11.668,0 22.138,-2.115 31.413,-6.339 9.273,-4.227 16.38,-9.872 21.316,-16.941 4.936,-7.067 8.488,-16.287 10.658,-27.654 L 60.357,49.14 c -2.319,11.291 -7.124,19.949 -14.416,25.971 -7.292,6.019 -16.66,9.032 -28.103,9.032 -11.892,0 -22.999,-3.238 -33.32,-9.705 -10.322,-6.47 -18.568,-16.231 -24.738,-29.282 -6.17,-13.052 -9.256,-27.879 -9.256,-44.482 0,-16.531 4.076,-29.021 12.229,-37.472 8.151,-8.453 19.409,-12.678 33.769,-12.678 14.285,0 29.654,4.713 46.11,14.137 L 50.036,0 0,0 z"
             style="fill:#3984a4;fill-opacity:1;fill-rule:nonzero;stroke:none"
             id="path482"
             inkscape:connector-curvature="0" /></g><g
           id="g484"
           transform="translate(932.7651,381.7266)"><path
             d="m 0,0 16.622,79.37 57.28,0 -1.894,-9.042 -46.67,0 -5.197,-24.688 45.478,0 -1.895,-9.04 -45.479,0 -5.738,-27.614 49.972,0 L 60.584,0 0,0 z"
             style="fill:#3984a4;fill-opacity:1;fill-rule:nonzero;stroke:none"
             id="path486"
             inkscape:connector-curvature="0" /></g><g
           id="g488"
           transform="translate(1026.9165,381.7266)"><path
             d="m 0,0 14.672,70.328 -26.042,0 1.895,9.042 62.478,0 -1.895,-9.042 -25.825,0 L 10.61,0 0,0 z"
             style="fill:#3984a4;fill-opacity:1;fill-rule:nonzero;stroke:none"
             id="path490"
             inkscape:connector-curvature="0" /></g><g
           id="g492"
           transform="translate(1087.9331,412.749)"><path
             d="M 0,0 26.257,0 23.172,19.922 C 21.98,27.828 21.239,34.414 20.951,39.685 19.146,35.137 16.512,29.739 13.047,23.497 L 0,0 z m -28.911,-31.022 44.991,79.37 12.506,0 13.102,-79.37 -10.288,0 -3.844,22.846 -32.105,0 -12.722,-22.846 -11.64,0 z"
             style="fill:#3984a4;fill-opacity:1;fill-rule:nonzero;stroke:none"
             id="path494"
             inkscape:connector-curvature="0" /></g><g
           id="g496"
           transform="translate(1160.1558,425.5801)"><path
             d="m 0,0 14.672,0 c 6.785,0 11.207,0.09 13.266,0.271 4.004,0.395 7.29,1.297 9.853,2.707 2.561,1.406 4.547,3.303 5.954,5.684 1.408,2.382 2.113,4.944 2.113,7.689 0,2.307 -0.524,4.321 -1.571,6.037 -1.048,1.712 -2.419,2.877 -4.114,3.491 C 38.476,26.492 35.589,26.8 31.51,26.8 L 5.632,26.8 0,0 z m -19.761,-43.854 16.621,79.371 33.297,0 c 6.569,0 11.549,-0.552 14.942,-1.653 3.392,-1.1 6.054,-3.166 7.986,-6.199 1.931,-3.031 2.896,-6.857 2.896,-11.477 0,-6.461 -2.11,-11.821 -6.335,-16.08 -4.221,-4.259 -11.044,-7.02 -20.464,-8.284 2.886,-2.13 5.07,-4.222 6.55,-6.28 3.321,-4.655 5.993,-9.476 8.013,-14.454 l 6.066,-14.944 -11.858,0 -5.685,14.781 c -2.058,5.341 -4.404,9.962 -7.038,13.859 -1.806,2.707 -3.646,4.485 -5.523,5.333 -1.877,0.848 -4.926,1.273 -9.149,1.273 l -12.344,0 -7.363,-35.246 -10.612,0 z"
             style="fill:#3984a4;fill-opacity:1;fill-rule:nonzero;stroke:none"
             id="path498"
             inkscape:connector-curvature="0" /></g><g
           id="g500"
           transform="translate(1221.606,381.7266)"><path
             d="m 0,0 16.621,79.37 10.557,0 L 10.61,0 0,0 z"
             style="fill:#3984a4;fill-opacity:1;fill-rule:nonzero;stroke:none"
             id="path502"
             inkscape:connector-curvature="0" /></g></g></g></g></svg>